<svg width="20" height="20" viewBox="0 0 20 20" fill="none" xmlns="http://www.w3.org/2000/svg">
<g clip-path="url(#clip0_962_3248)">
<path fill-rule="evenodd" clip-rule="evenodd" d="M0.833008 2.91658C0.833008 1.76599 1.76575 0.833252 2.91634 0.833252H17.083C18.2336 0.833252 19.1663 1.76599 19.1663 2.91658V7.08325C19.1663 8.23384 18.2336 9.16658 17.083 9.16658H2.91634C1.76575 9.16658 0.833008 8.23384 0.833008 7.08325V2.91658ZM2.91634 2.49992C2.68622 2.49992 2.49967 2.68647 2.49967 2.91658V7.08325C2.49967 7.31337 2.68622 7.49992 2.91634 7.49992H17.083C17.3131 7.49992 17.4997 7.31337 17.4997 7.08325V2.91658C17.4997 2.68647 17.3131 2.49992 17.083 2.49992H2.91634Z" fill="#424551"/>
<path fill-rule="evenodd" clip-rule="evenodd" d="M0.833008 12.9166C0.833008 11.766 1.76575 10.8333 2.91634 10.8333H17.083C18.2336 10.8333 19.1663 11.766 19.1663 12.9166V17.0833C19.1663 18.2338 18.2336 19.1666 17.083 19.1666H2.91634C1.76575 19.1666 0.833008 18.2338 0.833008 17.0833V12.9166ZM2.91634 12.4999C2.68622 12.4999 2.49967 12.6865 2.49967 12.9166V17.0833C2.49967 17.3134 2.68622 17.4999 2.91634 17.4999H17.083C17.3131 17.4999 17.4997 17.3134 17.4997 17.0833V12.9166C17.4997 12.6865 17.3131 12.4999 17.083 12.4999H2.91634Z" fill="#424551"/>
</g>
<defs>
<clipPath id="clip0_962_3248">
<rect width="20" height="20" fill="white"/>
</clipPath>
</defs>
</svg>
