<svg width="16" height="16" viewBox="0 0 16 16" fill="none" xmlns="http://www.w3.org/2000/svg">
<g clip-path="url(#clip0_963_455)">
<path fill-rule="evenodd" clip-rule="evenodd" d="M7.24967 2.16659C4.44223 2.16659 2.16634 4.44247 2.16634 7.24992C2.16634 10.0574 4.44223 12.3333 7.24967 12.3333C8.65227 12.3333 9.92112 11.7661 10.8415 10.847C11.7637 9.92613 12.333 8.65514 12.333 7.24992C12.333 4.44247 10.0571 2.16659 7.24967 2.16659ZM0.833008 7.24992C0.833008 3.70609 3.70585 0.833252 7.24967 0.833252C10.7935 0.833252 13.6663 3.70609 13.6663 7.24992C13.6663 8.78272 13.1282 10.1908 12.2317 11.2941L14.9706 14.0281C15.2312 14.2882 15.2316 14.7103 14.9715 14.9709C14.7114 15.2315 14.2893 15.2319 14.0287 14.9718L11.2883 12.2364C10.1858 13.1303 8.7799 13.6666 7.24967 13.6666C3.70585 13.6666 0.833008 10.7937 0.833008 7.24992Z" fill="#9A9CA5"/>
</g>
<defs>
<clipPath id="clip0_963_455">
<rect width="16" height="16" fill="white"/>
</clipPath>
</defs>
</svg>
