<svg width="20" height="20" viewBox="0 0 20 20" fill="none" xmlns="http://www.w3.org/2000/svg">
<g clip-path="url(#clip0_962_3705)">
<path fill-rule="evenodd" clip-rule="evenodd" d="M0.833008 2.91658C0.833008 1.76599 1.76575 0.833252 2.91634 0.833252H7.08301C8.2336 0.833252 9.16634 1.76599 9.16634 2.91658V7.08325C9.16634 8.23384 8.2336 9.16658 7.08301 9.16658H2.91634C1.76575 9.16658 0.833008 8.23384 0.833008 7.08325V2.91658ZM2.91634 2.49992C2.68622 2.49992 2.49967 2.68647 2.49967 2.91658V7.08325C2.49967 7.31337 2.68622 7.49992 2.91634 7.49992H7.08301C7.31313 7.49992 7.49967 7.31337 7.49967 7.08325V2.91658C7.49967 2.68647 7.31313 2.49992 7.08301 2.49992H2.91634Z" fill="#424551"/>
<path fill-rule="evenodd" clip-rule="evenodd" d="M0.833008 12.9166C0.833008 11.766 1.76575 10.8333 2.91634 10.8333H7.08301C8.2336 10.8333 9.16634 11.766 9.16634 12.9166V17.0833C9.16634 18.2338 8.2336 19.1666 7.08301 19.1666H2.91634C1.76575 19.1666 0.833008 18.2338 0.833008 17.0833V12.9166ZM2.91634 12.4999C2.68622 12.4999 2.49967 12.6865 2.49967 12.9166V17.0833C2.49967 17.3134 2.68622 17.4999 2.91634 17.4999H7.08301C7.31313 17.4999 7.49967 17.3134 7.49967 17.0833V12.9166C7.49967 12.6865 7.31313 12.4999 7.08301 12.4999H2.91634Z" fill="#424551"/>
<path fill-rule="evenodd" clip-rule="evenodd" d="M10.833 2.91658C10.833 1.76599 11.7657 0.833252 12.9163 0.833252H17.083C18.2336 0.833252 19.1663 1.76599 19.1663 2.91658V7.08325C19.1663 8.23384 18.2336 9.16658 17.083 9.16658H12.9163C11.7657 9.16658 10.833 8.23384 10.833 7.08325V2.91658ZM12.9163 2.49992C12.6862 2.49992 12.4997 2.68647 12.4997 2.91658V7.08325C12.4997 7.31337 12.6862 7.49992 12.9163 7.49992H17.083C17.3131 7.49992 17.4997 7.31337 17.4997 7.08325V2.91658C17.4997 2.68647 17.3131 2.49992 17.083 2.49992H12.9163Z" fill="#424551"/>
<path fill-rule="evenodd" clip-rule="evenodd" d="M10.833 12.9166C10.833 11.766 11.7657 10.8333 12.9163 10.8333H17.083C18.2336 10.8333 19.1663 11.766 19.1663 12.9166V17.0833C19.1663 18.2338 18.2336 19.1666 17.083 19.1666H12.9163C11.7657 19.1666 10.833 18.2338 10.833 17.0833V12.9166ZM12.9163 12.4999C12.6862 12.4999 12.4997 12.6865 12.4997 12.9166V17.0833C12.4997 17.3134 12.6862 17.4999 12.9163 17.4999H17.083C17.3131 17.4999 17.4997 17.3134 17.4997 17.0833V12.9166C17.4997 12.6865 17.3131 12.4999 17.083 12.4999H12.9163Z" fill="#424551"/>
</g>
<defs>
<clipPath id="clip0_962_3705">
<rect width="20" height="20" fill="white"/>
</clipPath>
</defs>
</svg>
